inDegrees=no
num_controls=7
num_derivatives=13
num_iterations=104
num_multipliers=7
num_parameters=0
num_slacks=7
num_states=26
objective=5.832406
objective_accelerations=0.277560
objective_balance=0.065617
objective_effort=0.375958
objective_height=5.047090
objective_ligament=0.066181
solver_duration=897.033110
status=Solve_Succeeded
success=true
DataType=double
version=3
OpenSimVersion=4.4-2022-07-23-0e9fedc
endheader
time	/jointset/ground_pelvis/pelvis_tilt/value	/jointset/ground_pelvis/pelvis_tx/value	/jointset/ground_pelvis/pelvis_ty/value	/jointset/hip_r/hip_flexion_r/value	/jointset/hip_r/hip_adduction_r/value	/jointset/hip_r/hip_rotation_r/value	/jointset/back/lumbar_extension/value	/jointset/patellofemoral_r/patellar_flexion_r/value	/jointset/knee_r/knee_flexion_r/value	/jointset/knee_r/knee_adduction_r/value	/jointset/knee_r/knee_rotation_r/value	/jointset/ankle_r/ankle_angle_r/value	/jointset/subtalar_r/subtalar_angle_r/value	/jointset/ground_pelvis/pelvis_tilt/speed	/jointset/ground_pelvis/pelvis_tx/speed	/jointset/ground_pelvis/pelvis_ty/speed	/jointset/hip_r/hip_flexion_r/speed	/jointset/hip_r/hip_adduction_r/speed	/jointset/hip_r/hip_rotation_r/speed	/jointset/back/lumbar_extension/speed	/jointset/patellofemoral_r/patellar_flexion_r/speed	/jointset/knee_r/knee_flexion_r/speed	/jointset/knee_r/knee_adduction_r/speed	/jointset/knee_r/knee_rotation_r/speed	/jointset/ankle_r/ankle_angle_r/speed	/jointset/subtalar_r/subtalar_angle_r/speed	/forceset/tau_hip_flexion_r	/forceset/tau_hip_adduction_r	/forceset/tau_hip_rotation_r	/forceset/tau_knee_flexion_r	/forceset/tau_ankle_angle_r	/forceset/tau_subtalar_angle_r	/forceset/tau_lumbar_extension	lambda_cid13_p0	lambda_cid14_p0	lambda_cid14_p1	lambda_cid14_p2	lambda_cid14_p3	lambda_cid14_p4	lambda_cid14_p5	/jointset/ground_pelvis/pelvis_tilt/accel	/jointset/ground_pelvis/pelvis_tx/accel	/jointset/ground_pelvis/pelvis_ty/accel	/jointset/hip_r/hip_flexion_r/accel	/jointset/hip_r/hip_adduction_r/accel	/jointset/hip_r/hip_rotation_r/accel	/jointset/back/lumbar_extension/accel	/jointset/patellofemoral_r/patellar_flexion_r/accel	/jointset/knee_r/knee_flexion_r/accel	/jointset/knee_r/knee_adduction_r/accel	/jointset/knee_r/knee_rotation_r/accel	/jointset/ankle_r/ankle_angle_r/accel	/jointset/subtalar_r/subtalar_angle_r/accel	gamma_cid13_p0	gamma_cid14_p0	gamma_cid14_p1	gamma_cid14_p2	gamma_cid14_p3	gamma_cid14_p4	gamma_cid14_p5
0	-0.006516640739747006	0.09626118535890238	0.9427240364632389	0.1762555651711513	-0.2321526335689802	-0.261640540403708	-0.0385979564078546	0.07317816487771493	0.07317816487761825	0.1745327519322016	0.1745326809451518	0.0324735960626065	-0.00345172780600693	0	0	0	0	0	0	0	0	0	0	0	0	0	0.234519886453282	-0.148396093122953	-0.05365425657767692	-0.465355106053528	0.5258655449151592	-0.1901832386201525	-0.1202824851888602	-39.07655756558857	117.8782758790411	-52.12883751335887	-2.455335834842886	-74.26464824686845	-684.0590265743214	34.83532644741889	-0.6758536811694352	0.06480066082624197	-0.3227781519759595	4.842894927551924	0.3094548264014736	1.862380912367166	-4.084960779060975	7.066370163379019	7.066370163357346	-2.520399128961765	0.1428104249879761	3.679128679439688	1.167253609323476	7.90214906479262e-08	5.010387142974709e-08	-5.28017550927099e-07	2.212169108783591e-07	2.710913740557506e-08	3.012199943659485e-08	-3.594212316794565e-07
0.01	-0.006546344633115113	0.09626391559099418	0.942708635697763	0.1764889758679772	-0.232136349172894	-0.2615402696866288	-0.03880401099412584	0.0735211954734933	0.07352119547348293	0.1744070502981845	0.1745297645096595	0.03265305111904307	-0.003393641799080027	-0.005890671182837055	0.0004773276147906774	-0.00307638274958022	0.04649508639934866	0.0031851084199656	0.01996712958284628	-0.04103055802129944	0.06826495622478554	0.06826495622473575	-0.02489659447358453	-0.0005931479631914031	0.03561317963855656	0.0114780516167574	0.2280192381107864	-0.1888307361731671	-0.05113548239876221	-0.4536050652200399	0.4976340197037065	-0.1458513482577055	-0.1155700195773423	-39.08782285260155	110.4422133131759	-34.38536960171088	-5.046690807819134	-69.48552834271737	-684.2996702934433	69.6580793478811	-0.5381524027937058	0.02889641288090527	-0.2994967602387249	4.524762973765476	0.3122373153449844	2.050874848667351	-4.085049428789294	6.655368105128654	6.655368105134491	-2.437783742055539	-0.1618012336177682	3.460750752129729	1.117150887527102	1.045948449704525e-07	6.264521317707866e-08	-6.808523669323585e-07	2.24850420011702e-07	4.128625003690716e-08	-5.781439924690086e-08	-4.063343835977278e-07
0.02	-0.006633450951521397	0.09626935861944796	0.9426625854200366	0.1771817269243862	-0.2320903739995001	-0.2612429285003275	-0.03941496038362598	0.07453663758243444	0.07453663758248488	0.1740396838920212	0.1745206318276122	0.03318030560107048	-0.003224961286050896	-0.01148048500395039	0.0005425592723979552	-0.006129902450081679	0.09186807190416285	0.005938155461944736	0.03941409386263876	-0.08097896064758325	0.1344823025736308	0.1344823025736441	-0.04833295436711729	-0.001243248992100547	0.06955988511977088	0.02211890122052113	0.2215185897692532	-0.2292653792233858	-0.048616708221444	-0.4418550243855238	0.4694024944925648	-0.1015194578951688	-0.1108575539653416	-39.12117805480766	103.071848720561	-16.64697473771052	-7.618302924863507	-64.90442905566121	-683.5883954681616	104.2880292607235	-0.6156822088246394	-0.01761853061051681	-0.3182055421602123	4.618474748645085	0.2230425508041139	1.758347851753784	-3.868529700057842	6.656848188191483	6.656848188192382	-2.228352212951202	0.1314198118471166	3.345833847971187	0.9998132067246978	1.301681992929789e-07	7.518655492441025e-08	-8.336871829376181e-07	2.284839291450449e-07	5.546336266823926e-08	-1.457507979303966e-07	-4.53247535515999e-07
0.03	-0.006774943752687139	0.09627354166384453	0.9425859959945025	0.1783230445823881	-0.2320188122727927	-0.2607561234866988	-0.04041885363548585	0.07620545387851253	0.07620545387849283	0.1734447707581749	0.1745071726433526	0.03403945876819819	-0.002953585197789645	-0.01674779561597966	0.0002409810770745961	-0.009192221276170299	0.1362112180759268	0.00832240038418311	0.05783136926931485	-0.1195257866712359	0.1990145300882621	0.1990145300882636	-0.07045179570245669	-0.001432771252348175	0.1020535265854902	0.0320555410605327	0.2132888763499243	-0.209065320823473	-0.04633591638391456	-0.4283829265507449	0.4516382772510418	-0.111945915239122	-0.1047445777942846	-39.17584483521064	96.96347353572992	-22.21601385810429	-6.763232137610134	-59.97978770806858	-683.2281692387	91.67651102625825	-0.4716997500961138	-0.04437659384274117	-0.3009103512084462	4.314608863242939	0.2382697251266571	1.866141950543432	-3.806673595384843	6.311419916073191	6.311419916071121	-2.174070297427865	-0.09169759511947032	3.168572334592972	0.975367147645819	1.399834796394039e-07	7.764264025203806e-08	-8.931672308265372e-07	2.213845655092124e-07	6.331227966769937e-08	-2.087433892969994e-07	-4.665770395501581e-07
0.04	-0.006966998512514748	0.09627311910031781	0.9424786503210347	0.1799022685644454	-0.2319249772444239	-0.2600886008059067	-0.04179999805595937	0.07851159442617875	0.07851159442619615	0.1726345851704704	0.1744923063664979	0.03521703695772858	-0.002585887156126933	-0.02159287673618127	-0.000378562312259292	-0.01228115203684095	0.1794493367197452	0.01039281579412338	0.07555762729271207	-0.1564291943695131	0.2619471529218818	0.261947152921874	-0.09138744518188796	-0.001524667518942285	0.1332448896000451	0.04138329190079516	0.2050591629303962	-0.188865262423549	-0.04405512454517781	-0.4149108287162541	0.4338740600094836	-0.1223723725830905	-0.09863160162337523	-39.25089236477968	90.91465452964268	-27.80140150331269	-5.874969818722247	-55.2268337197242	-681.9745279878144	78.8621827972361	-0.5312363104590501	-0.08121156941273922	-0.3235279290766151	4.397469243056063	0.1602766483445486	1.620144375096995	-3.539846034982754	6.33692725198943	6.336927251990802	-1.991713841769661	0.150945010578852	3.085378157738221	0.8780354067749236	1.494738512440537e-07	7.989078214833177e-08	-9.507224381357379e-07	2.140639055276238e-07	7.103071840670851e-08	-2.712216753580994e-07	-4.792140972361912e-07
0.05	-0.007205920633196606	0.09626523948151597	0.9423401502621184	0.1819085460495105	-0.2318122457265151	-0.2592483812120751	-0.04354212948199834	0.08143939031909882	0.08143939031908447	0.171621564139287	0.1744780899553943	0.03670037604145092	-0.002128093917181257	-0.02614816675385941	-0.001216876367850618	-0.01543055350181442	0.2216040074322724	0.01210319657440168	0.09239216519652638	-0.1917668785347466	0.3233298114475626	0.3233298114475562	-0.1110108034399802	-0.001339653770474581	0.1632390550162768	0.05008511711697277	0.1988745845072175	-0.1847427511424077	-0.0421063703344327	-0.4061282003401928	0.4194974496972041	-0.1195828522054839	-0.09391433822804716	-39.34531302676021	86.43254509226736	-27.45361301664566	-5.840276654967249	-52.09757363786087	-681.3361522923213	78.28199447109066	-0.4111502109911789	-0.08805429337636807	-0.3124550677192145	4.094155537655339	0.1687811143797433	1.701045038623747	-3.49619776170137	5.996573049056608	5.996573049055867	-1.916874713370724	-0.05080671613269265	2.928886702796295	0.8525941398599042	1.445395144628243e-07	7.453007735464368e-08	-9.147838185212859e-07	2.068151387095053e-07	7.247724119050435e-08	-3.134201402256954e-07	-4.720489235456328e-07
0.06	-0.007489090626785128	0.09624839412820911	0.9421697944260512	0.1843303081521865	-0.2316839379365064	-0.2582426289311249	-0.04563073138056842	0.08497254037655609	0.08497254037656345	0.1704184639464914	0.1744651064270277	0.03847814697317737	-0.001586014813909248	-0.03044245131433312	-0.002171709213265749	-0.01865230746702447	0.2625462602369496	0.01350807021507548	0.1086641647243434	-0.2257232888762783	0.3830179858212278	0.3830179858212151	-0.129403277519742	-0.001278090946533996	0.192131259201739	0.05824046476597756	0.1926900060844631	-0.1806202398612451	-0.04015761612368283	-0.3973455719638271	0.4051208393850459	-0.1167933318278273	-0.0891970748324913	-39.45781213998016	82.00501774039463	-27.11192720118094	-5.786723286874358	-49.13026462636399	-679.8974280996944	77.53601018029987	-0.4790352190180964	-0.1045153273776066	-0.3379984291239267	4.154985661486145	0.09917522042371552	1.50763669989701	-3.263591270242375	5.998030421586452	5.998030421586307	-1.745537006103711	0.126254825673963	2.864985911584249	0.7687398933404206	1.389978215390316e-07	6.884900006874581e-08	-8.749086167205747e-07	1.995693989719539e-07	7.365968330250172e-08	-3.547647178851438e-07	-4.640499716918495e-07
